<svg width="24" height="24" viewBox="0 0 24 24" fill="none" xmlns="http://www.w3.org/2000/svg"><path d="M20.6323 6.89291C20.9107 6.89291 21.1778 7.00353 21.3747 7.20042C21.5716 7.39732 21.6822 7.66436 21.6822 7.94281C21.6822 8.22127 21.5716 8.48831 21.3747 8.68521L16.5453 13.5146C16.3398 13.7201 16.3398 14.0532 16.5453 14.2587C16.7508 14.4642 17.084 14.4642 17.2895 14.2587L21.3759 10.1723C21.5727 9.97545 21.8398 9.86483 22.1182 9.86483C22.3967 9.86483 22.6637 9.97545 22.8606 10.1723C23.0575 10.3692 23.1681 10.6363 23.1681 10.9147C23.1681 11.1932 23.0575 11.4602 22.8606 11.6571L18.7742 15.7435C18.5688 15.949 18.5688 16.2822 18.7742 16.4877C18.9797 16.6932 19.3129 16.6932 19.5184 16.4877L21.3759 14.6302C21.5727 14.4333 21.8398 14.3227 22.1182 14.3227C22.3967 14.3227 22.6637 14.4333 22.8606 14.6302C23.0575 14.8271 23.1681 15.0942 23.1681 15.3726C23.1681 15.6511 23.0575 15.9181 22.8606 16.115L19.1457 19.8299C17.7665 21.2091 15.8959 21.9839 13.9455 21.9839C11.995 21.9839 10.1244 21.2091 8.7452 19.8299C7.366 18.4507 6.59117 16.5801 6.59117 14.6296C6.59117 12.6792 7.366 10.8086 8.7452 9.42936L10.2312 7.9434C10.4281 7.74651 10.6951 7.63589 10.9735 7.63589C11.252 7.63589 11.519 7.74651 11.7159 7.9434C11.9128 8.1403 12.0234 8.40735 12.0234 8.6858C12.0234 8.96425 11.9128 9.23129 11.7159 9.42819L9.85849 11.2856C9.653 11.4911 9.653 11.8243 9.85849 12.0298C10.064 12.2353 10.3972 12.2353 10.6026 12.0298L16.918 5.71446C17.1149 5.51757 17.3819 5.40695 17.6604 5.40695C17.9388 5.40695 18.2059 5.51757 18.4028 5.71446C18.5997 5.91136 18.7103 6.1784 18.7103 6.45686C18.7103 6.73531 18.5997 7.00235 18.4028 7.19925L14.3164 11.2856C14.1109 11.4911 14.1109 11.8243 14.3164 12.0298C14.5219 12.2353 14.855 12.2353 15.0605 12.0298L19.8899 7.20042C20.0868 7.00353 20.3538 6.89291 20.6323 6.89291Z" fill="#111827"/><path d="M19.7697 6.02562L19.7117 5.99659C19.7155 6.01354 19.7191 6.03054 19.7224 6.0476C19.7381 6.04008 19.7539 6.03275 19.7697 6.02562Z" fill="#111827"/><path d="M19.4823 20.9555L19.5178 20.945L19.5861 20.8631C19.5517 20.8942 19.5171 20.925 19.4823 20.9555Z" fill="#111827"/><path d="M15.1053 4.65373C14.9084 4.45683 14.6413 4.34622 14.3629 4.34622C14.0844 4.34622 13.8174 4.45683 13.6205 4.65373L11.5963 6.6779C11.9194 6.77811 12.2165 6.95573 12.4601 7.1993C12.723 7.46216 12.909 7.78746 13.0038 8.14034L15.3228 5.82137C15.3816 5.68871 15.4128 5.54402 15.4128 5.39612C15.4128 5.11767 15.3022 4.85062 15.1053 4.65373Z" fill="#111827"/><path d="M16.409 13.7505L12.8763 17.2832C11.6577 18.5019 10.0554 19.2487 8.35328 19.406C7.2201 18.0794 6.59117 16.3869 6.59117 14.6296C6.59117 12.7662 7.29842 10.9757 8.56425 9.61689C8.64732 9.59312 8.7257 9.54853 8.79113 9.4831L10.5483 7.72592C10.681 7.66715 10.8256 7.63589 10.9735 7.63589C11.252 7.63589 11.519 7.74651 11.7159 7.9434C11.9128 8.1403 12.0234 8.40735 12.0234 8.6858C12.0234 8.96425 11.9128 9.23129 11.7159 9.42819L9.85849 11.2856C9.653 11.4911 9.653 11.8243 9.85849 12.0298C10.064 12.2353 10.3972 12.2353 10.6026 12.0298L10.7842 11.8483C10.8706 11.8253 10.9523 11.7798 11.0201 11.712L15.1065 7.62565C15.3033 7.42875 15.5704 7.31814 15.8488 7.31814C16.1273 7.31814 16.3943 7.42875 16.5912 7.62565C16.7881 7.82254 16.8987 8.08959 16.8987 8.36804C16.8987 8.51594 16.8675 8.66063 16.8088 8.79329L14.3164 11.2856C14.2486 11.3534 14.2032 11.4352 14.1801 11.5216L12.5048 13.1968C12.2994 13.4023 12.2994 13.7355 12.5048 13.941C12.7103 14.1465 13.0435 14.1465 13.249 13.941L15.1065 12.0835C15.3033 11.8866 15.5704 11.776 15.8488 11.776C16.1273 11.776 16.3943 11.8866 16.5912 12.0835C16.7881 12.2804 16.8987 12.5475 16.8987 12.8259C16.8987 12.9738 16.8675 13.1185 16.8088 13.2512L16.5453 13.5146C16.4775 13.5824 16.4321 13.6641 16.409 13.7505Z" fill="#111827"/><path d="M9.91839 6.86752C9.76215 6.95818 9.61695 7.06936 9.48701 7.1993L8.00105 8.68526C6.42449 10.2618 5.53879 12.4001 5.53879 14.6297C5.53879 16.3489 6.0654 18.0138 7.0293 19.4088C5.31589 19.2575 3.70172 18.5091 2.4758 17.2832C1.0966 15.904 0.321777 14.0334 0.321777 12.0829C0.321777 10.1325 1.0966 8.26187 2.4758 6.88267L3.96176 5.39671C4.15865 5.19981 4.4257 5.0892 4.70415 5.0892C4.9826 5.0892 5.24965 5.19981 5.44654 5.39671C5.64344 5.5936 5.75405 5.86065 5.75405 6.1391C5.75405 6.41755 5.64344 6.6846 5.44654 6.88149L3.58909 8.73894C3.3836 8.94443 3.3836 9.27761 3.58909 9.4831C3.79459 9.68859 4.12776 9.68859 4.33325 9.4831L10.6486 3.16777C10.8455 2.97087 11.1125 2.86026 11.391 2.86026C11.6694 2.86026 11.9365 2.97087 12.1334 3.16777C12.3303 3.36466 12.4409 3.63171 12.4409 3.91016C12.4409 4.18861 12.3303 4.45566 12.1334 4.65255L9.91839 6.86752Z" fill="#111827"/><path d="M13.4423 3.4499L13.5003 3.47893C13.4845 3.48606 13.4687 3.49338 13.4531 3.5009C13.4497 3.48385 13.4461 3.46685 13.4423 3.4499Z" fill="#111827"/><path d="M13.2484 18.3983L13.2129 18.4088C13.2477 18.3783 13.2823 18.3475 13.3167 18.3164L13.2484 18.3983Z" fill="#111827"/></svg>