<svg width="108" height="108" viewBox="0 0 108 108" fill="none" xmlns="http://www.w3.org/2000/svg"><g opacity="0.85" filter="url(#filter0_dddd_449_361)"><path fill-rule="evenodd" clip-rule="evenodd" d="M88.0001 54.0001C88.0001 58.465 87.1207 62.8862 85.412 67.0113C83.7034 71.1364 81.1989 74.8845 78.0417 78.0417C74.8846 81.1989 71.1364 83.7033 67.0114 85.412C62.8863 87.1206 58.4651 88.0001 54.0001 88.0001C49.5352 88.0001 45.114 87.1206 40.9889 85.412C36.8638 83.7033 33.1157 81.1989 29.9585 78.0417C26.8013 74.8845 24.2969 71.1364 22.5882 67.0113C20.8796 62.8862 20.0001 58.465 20.0001 54.0001C20.0001 44.9827 23.5823 36.3347 29.9585 29.9584C36.3347 23.5822 44.9828 20.0001 54.0001 20.0001C63.0175 20.0001 71.6655 23.5822 78.0417 29.9584C84.418 36.3347 88.0001 44.9827 88.0001 54.0001ZM64.3967 50.857L52.3191 42.8027C51.7497 42.4228 51.0876 42.2047 50.4039 42.1718C49.7201 42.139 49.0402 42.2925 48.4369 42.6161C47.8336 42.9397 47.3296 43.4211 46.9787 44.0089C46.6278 44.5967 46.4432 45.2688 46.4447 45.9534V62.0581C46.4446 62.742 46.6301 63.4131 46.9816 63.9999C47.333 64.5866 47.8372 65.0669 48.4402 65.3896C49.0433 65.7122 49.7226 65.8652 50.4057 65.832C51.0889 65.7988 51.7502 65.5808 52.3191 65.2012L64.3967 57.147C64.9141 56.802 65.3383 56.3346 65.6317 55.7863C65.9251 55.238 66.0786 54.6257 66.0786 54.0038C66.0786 53.382 65.9251 52.7697 65.6317 52.2214C65.3383 51.6731 64.9141 51.202 64.3967 50.857Z" fill="white"/></g><defs><filter id="filter0_dddd_449_361" x="0.00012207" y="6.10352e-05" width="108" height="108" filterUnits="userSpaceOnUse" color-interpolation-filters="sRGB"><feFlood flood-opacity="0" result="BackgroundImageFix"/><feColorMatrix in="SourceAlpha" type="matrix" values="0 0 0 0 0 0 0 0 0 0 0 0 0 0 0 0 0 0 127 0" result="hardAlpha"/><feOffset dy="2"/><feGaussianBlur stdDeviation="5"/><feColorMatrix type="matrix" values="0 0 0 0 0 0 0 0 0 0 0 0 0 0 0 0 0 0 0.05 0"/><feBlend mode="normal" in2="BackgroundImageFix" result="effect1_dropShadow_449_361"/><feColorMatrix in="SourceAlpha" type="matrix" values="0 0 0 0 0 0 0 0 0 0 0 0 0 0 0 0 0 0 127 0" result="hardAlpha"/><feOffset dy="2"/><feGaussianBlur stdDeviation="5"/><feColorMatrix type="matrix" values="0 0 0 0 0.0745098 0 0 0 0 0.0745098 0 0 0 0 0.0745098 0 0 0 0.03 0"/><feBlend mode="normal" in2="effect1_dropShadow_449_361" result="effect2_dropShadow_449_361"/><feColorMatrix in="SourceAlpha" type="matrix" values="0 0 0 0 0 0 0 0 0 0 0 0 0 0 0 0 0 0 127 0" result="hardAlpha"/><feOffset dy="-4"/><feGaussianBlur stdDeviation="5"/><feColorMatrix type="matrix" values="0 0 0 0 0.0745098 0 0 0 0 0.0745098 0 0 0 0 0.0745098 0 0 0 0.03 0"/><feBlend mode="normal" in2="effect2_dropShadow_449_361" result="effect3_dropShadow_449_361"/><feColorMatrix in="SourceAlpha" type="matrix" values="0 0 0 0 0 0 0 0 0 0 0 0 0 0 0 0 0 0 127 0" result="hardAlpha"/><feOffset/><feGaussianBlur stdDeviation="10"/><feColorMatrix type="matrix" values="0 0 0 0 0 0 0 0 0 0 0 0 0 0 0 0 0 0 0.03 0"/><feBlend mode="normal" in2="effect3_dropShadow_449_361" result="effect4_dropShadow_449_361"/><feBlend mode="normal" in="SourceGraphic" in2="effect4_dropShadow_449_361" result="shape"/></filter></defs></svg>